# xmcd
#
# Track frame offsets:
#	150
#	13845
#	27559
#	41222
#	53815
#	68430
#	81186
#	95579
#	107579
#	121023
#	139771
#	153742
#	166998
#	181030
#	193788
#	207003
#	220333
#	232403
#	245086
#	267424
#
# Disc length: 3751 seconds
#
# Revision: 3
# Processed by: cddbd v1.5.1PL0 Copyright (c) Steve Scherf et al.
# Submitted via: audiograbber 1.83.01
#
DISCID=230ea514
DTITLE=Various Artist - The Vintage Blues Box [CD2)
DYEAR=2000
DGENRE=
TTITLE0=Skip James - Devil Got My Woman
TTITLE1=Robert Johnson - Sweet Home Chicago
TTITLE2=Sonny Boy Williamson - Good Morning, School Girl
TTITLE3=Big Joe Williams - Baby Please Don´t Go
TTITLE4=Blind Willie Johnson - Jesus Make Up My Dying Bed
TTITLE5=Tampa Red - What Is That Tastes Like Gravy?
TTITLE6=Kansas Joe and Memphis Minnie - When The Levee Breaks
TTITLE7=Bukka White - Parchman Farm Blues
TTITLE8=Robert Johnson - I Believe I´ll Dust My Broom
TTITLE9=Leadbelly - C C Rider
TTITLE10=Blind Boy Fuller - Rag, Mama, Rag
TTITLE11=Son House - Depot Blues
TTITLE12=Muddy Waters - Take A Walk With Me
TTITLE13=Big Bill Broonzy - Long Tall Mama
TTITLE14=Charley Patton - Blues
TTITLE15=Sleepy John Estes - The Girl I Love, She Got Long Curly Hair
TTITLE16=Blind Lemon Jefferson - Blind Lemon's Penitentiary Blues
TTITLE17=Sonny Boy Williamson - Black Gal Blues
TTITLE18=Son House - Low Down Dirty Dog Blues
TTITLE19=Leadbelly - The Midnight Special
EXTD=
EXTT0=
EXTT1=
EXTT2=
EXTT3=
EXTT4=
EXTT5=
EXTT6=
EXTT7=
EXTT8=
EXTT9=
EXTT10=
EXTT11=
EXTT12=
EXTT13=
EXTT14=
EXTT15=
EXTT16=
EXTT17=
EXTT18=
EXTT19=
PLAYORDER=
